<?xml version="1.0" standalone="no"?>
<!DOCTYPE svg PUBLIC "-//W3C//DTD SVG 20010904//EN"
 "http://www.w3.org/TR/2001/REC-SVG-20010904/DTD/svg10.dtd">
<svg version="1.0" xmlns="http://www.w3.org/2000/svg"
 width="1080.000000pt" height="1080.000000pt" viewBox="0 0 1080.000000 1080.000000"
 preserveAspectRatio="xMidYMid meet">
<metadata>
Created by potrace 1.14, written by Peter Selinger 2001-2017
</metadata>
<g transform="translate(0.000000,1080.000000) scale(0.100000,-0.100000)"
fill="#000000" stroke="none">
<path d="M3236 7871 c-138 -80 -642 -373 -1120 -651 l-871 -505 -3 -228 -2
-227 402 0 403 0 425 251 c234 138 562 332 728 431 200 119 313 181 332 181
19 0 225 -123 676 -404 357 -223 684 -427 727 -453 43 -27 84 -58 92 -69 13
-19 15 -163 15 -1067 0 -575 3 -1054 6 -1065 4 -14 104 -75 317 -195 172 -96
668 -374 1102 -618 435 -245 804 -451 821 -459 l30 -15 1045 612 c574 336
1080 633 1124 659 l80 47 3 227 2 226 -152 3 -153 3 0 105 0 105 75 3 c44 2
77 8 82 15 12 19 7 150 -7 172 -25 41 -27 74 -5 92 17 15 20 29 20 93 0 41 -4
80 -8 87 -4 7 -38 13 -82 15 l-75 3 -2 145 c-2 80 1 152 6 159 6 10 33 16 76
19 57 4 68 8 75 26 13 36 11 139 -4 156 -25 29 -27 66 -5 93 17 22 19 38 17
104 l-3 78 -80 5 -80 5 -3 88 -3 87 53 2 c29 1 78 2 108 3 l55 0 3 250 2 251
-1071 614 c-589 338 -1102 632 -1140 653 l-69 39 -163 -96 c-669 -394 -1501
-893 -1504 -902 -2 -5 73 -55 167 -109 94 -54 174 -103 177 -108 3 -5 10 -71
15 -146 5 -75 12 -173 16 -219 l7 -83 640 371 c395 228 648 369 660 367 11 -2
352 -200 757 -440 l737 -437 188 0 c103 0 205 -3 226 -6 l38 -7 -3 -86 -3 -86
-77 -3 -78 -3 0 -87 c1 -61 5 -93 15 -106 19 -26 19 -60 0 -76 -13 -10 -15
-32 -13 -104 l3 -91 78 -3 78 -3 -3 -157 -3 -157 -75 -5 -75 -5 -3 -87 c-2
-69 1 -93 14 -114 17 -24 17 -28 0 -58 -13 -24 -16 -51 -14 -116 l3 -85 75 -5
75 -5 0 -105 0 -105 -170 0 c-170 -1 -170 -1 -230 -32 -33 -16 -376 -209 -762
-427 -386 -218 -708 -396 -714 -396 -7 0 -338 190 -735 422 -513 299 -725 428
-733 445 -8 17 -11 346 -11 1086 l0 1062 -798 460 c-438 253 -946 547 -1128
653 -234 135 -340 192 -360 191 -18 -1 -126 -58 -278 -148z m5984 -1746 c0
-50 -4 -85 -10 -85 -6 0 -10 35 -10 85 0 50 4 85 10 85 6 0 10 -35 10 -85z
m155 -185 l0 -45 -167 -3 -168 -2 0 39 c0 28 6 43 18 50 10 7 77 10 167 8
l150 -2 0 -45z m-25 -154 c0 -36 5 -60 16 -70 10 -11 14 -30 12 -58 l-3 -43
-165 0 -165 0 0 45 0 45 125 3 c128 3 153 10 130 37 -10 12 -35 15 -121 15
l-109 0 0 33 c0 19 3 37 7 40 3 4 66 7 140 7 l133 0 0 -54z m-130 -387 c0
-104 -3 -158 -10 -154 -6 4 -10 68 -10 161 0 96 4 154 10 154 6 0 10 -60 10
-161z m160 -253 c0 -37 -4 -45 -22 -50 -30 -8 -282 -8 -302 0 -16 6 -23 73 -9
87 3 4 80 7 170 7 l163 0 0 -44z m-32 -156 c2 -30 9 -59 16 -65 19 -15 27 -70
13 -88 -10 -13 -38 -16 -162 -17 -82 -1 -156 -1 -162 -1 -17 1 -17 75 0 89 7
7 66 13 133 14 98 2 119 6 119 18 0 12 -22 16 -115 20 l-115 5 -3 34 c-2 20 2
37 10 42 7 5 69 8 138 7 l125 -3 3 -55z m-128 -331 c0 -71 -4 -108 -10 -104
-6 3 -10 52 -10 111 0 63 4 104 10 104 6 0 10 -44 10 -111z"/>
<path d="M2777 6286 c-50 -19 -67 -34 -88 -81 -23 -51 -24 -156 -4 -325 67
-546 198 -988 426 -1442 64 -129 96 -148 38 -23 -95 203 -241 763 -283 1085
-23 175 -48 530 -41 569 16 86 61 121 131 102 22 -6 131 -61 244 -122 262
-143 326 -171 388 -167 l47 3 0 82 c0 91 13 118 75 161 53 36 186 74 280 79
104 7 233 -22 295 -65 44 -30 85 -100 85 -144 0 -15 4 -28 9 -28 14 0 36 91
36 152 0 69 -22 103 -85 136 -38 19 -60 22 -150 22 -125 0 -206 -13 -468 -77
-179 -43 -208 -48 -317 -48 -137 0 -199 15 -367 91 -113 51 -190 63 -251 40z"/>
<path d="M4304 5772 c-88 -82 -225 -135 -416 -163 -117 -16 -418 -14 -576 5
-242 29 -225 28 -157 5 141 -47 275 -64 520 -64 237 0 328 10 497 55 50 13 70
15 77 6 11 -14 -29 -378 -70 -626 -58 -357 -127 -583 -203 -666 -57 -64 -89
-64 -152 -3 l-46 44 17 -40 c32 -80 112 -155 165 -155 36 0 88 36 122 85 39
58 71 150 111 325 64 274 93 478 127 875 11 132 25 266 31 299 6 32 9 59 7 61
-2 2 -26 -18 -54 -43z"/>
<path d="M3438 5207 c-94 -27 -145 -88 -168 -202 -15 -80 -25 -373 -12 -405 6
-18 11 18 15 130 6 164 18 243 47 300 68 134 267 150 308 25 11 -35 10 -50
-13 -137 -39 -155 -35 -168 56 -168 35 0 61 -5 68 -13 6 -8 18 -67 26 -131 18
-140 57 -249 98 -280 26 -19 30 -19 55 -6 27 15 92 102 92 123 0 6 -16 -8 -35
-30 -44 -51 -70 -59 -100 -29 -26 26 -40 85 -55 233 -10 110 -32 178 -61 193
-10 6 -35 10 -57 10 -60 0 -66 14 -40 106 29 108 34 188 14 219 -37 56 -152
86 -238 62z"/>
<path d="M1360 4357 c0 -201 2 -225 18 -239 9 -8 199 -115 422 -238 223 -123
729 -403 1125 -623 549 -304 725 -398 745 -394 32 6 1633 909 1632 921 0 5
-81 53 -180 105 -98 53 -187 102 -196 110 -14 12 -16 41 -16 217 0 112 -4 204
-8 204 -5 0 -294 -156 -643 -347 -349 -190 -641 -346 -649 -345 -8 0 -338 192
-732 426 l-717 426 -400 0 -401 0 0 -223z"/>
</g>
</svg>
